{"title":"Avengers.Age.of.Ultron.2015.WEBRip.480p.x264.AAC-VYTO [P2PDL]","uid":12258675,"size":583835603,"categoryP":"video","categoryS":"movies","magnet":"?xt=urn:btih:b328d2225940b8f9f48fd52c1a1c55b947490749&amp;dn=Avengers.Age.of.Ultron.2015.WEBRip.480p.x264.AAC-VYTO+%5BP2PDL%5D&amp;tr=udp%3A%2F%2Ftracker.openbittorrent.com%3A80&amp;tr=udp%3A%2F%2Fopen.demonii.com%3A1337&amp;tr=udp%3A%2F%2Ftracker.coppersurfer.tk%3A6969&amp;tr=udp%3A%2F%2Fexodus.desync.com%3A6969","seeders":11,"leechers":3,"uploader":"ValidusVyto","files":7,"time":1440138049,"description":"____    ____ ____    ____ .___________.  ______   \n     /   /      /   / |           | /  __    \n    /   /      /   /  `---|  |----`|  |  |  | \n        /     _    _/       |  |     |  |  |  | \n       /        |  |         |  |     |  `--'  | \n    __/         |__|         |__|      ______/  \n                                                  \nPresenting Small Encodes with quality for years!\n                                                                                                   \n                                                                                                   \n\nAvengers.Age.of.Ultron.2015.WEBRip.480p.x264.AAC-VYTO\n\n\nGenre: Action, Adventure, Sci-Fi &lt;a href=&quot;\nhttp://www.imdb.com/title/tt2395427/&quot; rel=&quot;nofollow&quot; target=&quot;_NEW&quot;&gt;\nhttp://www.imdb.com/title/tt2395427/&lt;/a&gt;\n\n\nGeneral\nFormat                         : MPEG-4\nFile size                      : 552 MiB\nDuration                       : 2h 21mn\nOverall bit rate               : 545 Kbps\n\nVideo\nFormat                         : AVC\nBit rate                       : 502 Kbps\nWidth                          : 720 pixels\nHeight                         : 304 pixels\nDisplay aspect ratio           : 2.35:1\nFrame rate mode                : Constant\nFrame rate                     : 23.976 fps\nBit depth                      : 8 bits\nStream size                    : 508 MiB (92%)\nWriting library                : x264 core 148 r2579\n\nAudio\nFormat                         : AAC\nBit rate mode                  : Variable\nBit rate                       : 40.0 Kbps\nChannel(s)                     : 2 channels\nChannel positions              : Front: L R\nSampling rate                  : 48.0 KHz\nStream size                    : 40.4 MiB (7%)\nLanguage                       : English\n\nSubtitle                       : Yes\nSource                         : 720p.WEB-DL.DD5.1.H.264-PLAYNOW\t\n\nScreenshots:\n &lt;a href=&quot;\nhttp://ititli.com/M0&quot; rel=&quot;nofollow&quot; target=&quot;_NEW&quot;&gt;\nhttp://ititli.com/M0&lt;/a&gt; &lt;a href=&quot;\nhttp://ititli.com/MA&quot; rel=&quot;nofollow&quot; target=&quot;_NEW&quot;&gt;\nhttp://ititli.com/MA&lt;/a&gt; &lt;a href=&quot;\nhttp://ititli.com/Ml&quot; rel=&quot;nofollow&quot; target=&quot;_NEW&quot;&gt;\nhttp://ititli.com/Ml&lt;/a&gt; &lt;a href=&quot;\nhttp://ititli.com/Mm&quot; rel=&quot;nofollow&quot; target=&quot;_NEW&quot;&gt;\nhttp://ititli.com/Mm&lt;/a&gt; &lt;a href=&quot;\nhttp://ititli.com/Mx&quot; rel=&quot;nofollow&quot; target=&quot;_NEW&quot;&gt;\nhttp://ititli.com/Mx&lt;/a&gt; &lt;a href=&quot;\nhttp://ititli.com/M7&quot; rel=&quot;nofollow&quot; target=&quot;_NEW&quot;&gt;\nhttp://ititli.com/M7&lt;/a&gt; &lt;a href=&quot;\nhttp://ititli.com/MC&quot; rel=&quot;nofollow&quot; target=&quot;_NEW&quot;&gt;\nhttp://ititli.com/MC&lt;/a&gt; &lt;a href=&quot;\nhttp://ititli.com/MF&quot; rel=&quot;nofollow&quot; target=&quot;_NEW&quot;&gt;\nhttp://ititli.com/MF&lt;/a&gt; &lt;a href=&quot;\nhttp://ititli.com/MJ&quot; rel=&quot;nofollow&quot; target=&quot;_NEW&quot;&gt;\nhttp://ititli.com/MJ&lt;/a&gt; &lt;a href=&quot;\nhttp://ititli.com/M5&quot; rel=&quot;nofollow&quot; target=&quot;_NEW&quot;&gt;\nhttp://ititli.com/M5&lt;/a&gt; &lt;a href=&quot;\nhttp://ititli.com/MB&quot; rel=&quot;nofollow&quot; target=&quot;_NEW&quot;&gt;\nhttp://ititli.com/MB&lt;/a&gt; &lt;a href=&quot;\nhttp://ititli.com/MN&quot; rel=&quot;nofollow&quot; target=&quot;_NEW&quot;&gt;\nhttp://ititli.com/MN&lt;/a&gt;\n\n----------------------------------------------------------------------------------------------------\n\n\nEncoder Notes: Looking For Early Access To Anything You Can Provide DVDScr, R5, DVDR, BluRay, Direct\nAudio, Music Releases and Seedboxes. If You Got anything to offer please contact us.\n\nSupport us by donating BC - 1FgwdzPsd1y25Gea8wP1qni35uGCtmkRCD","torrent":{"xt":"urn:btih:b328d2225940b8f9f48fd52c1a1c55b947490749","amp;dn":"Avengers.Age.of.Ultron.2015.WEBRip.480p.x264.AAC-VYTO+%5BP2PDL%5D","amp;tr":["udp%3A%2F%2Ftracker.openbittorrent.com%3A80","udp%3A%2F%2Fopen.demonii.com%3A1337","udp%3A%2F%2Ftracker.coppersurfer.tk%3A6969","udp%3A%2F%2Fexodus.desync.com%3A6969"],"infoHash":"b328d2225940b8f9f48fd52c1a1c55b947490749","infoHashBuffer":{"type":"Buffer","data":[179,40,210,34,89,64,184,249,244,143,213,44,26,28,85,185,71,73,7,73]},"announce":[],"urlList":[]}}